<svg xmlns="http://www.w3.org/2000/svg" width="256" height="256" viewBox="0 0 100 100"><rect width="100" height="100" rx="20" fill="#d722c9"></rect><path fill="#fff" d="M40.93 65.79Q35.41 69.88 26.00 69.88Q16.60 69.88 11.08 65.79Q5.56 61.70 5.56 53.02L5.56 53.02L5.56 31.63Q5.56 31.02 6.01 30.57Q6.46 30.12 7.08 30.12L7.08 30.12L18.78 30.12Q19.40 30.12 19.84 30.57Q20.29 31.02 20.29 31.63L20.29 31.63L20.29 53.92Q20.29 56.22 21.83 57.45Q23.37 58.68 26.00 58.68Q28.64 58.68 30.18 57.45Q31.72 56.22 31.72 53.92L31.72 53.92L31.72 31.63Q31.72 31.02 32.16 30.57Q32.61 30.12 33.23 30.12L33.23 30.12L44.93 30.12Q45.55 30.12 46.00 30.57Q46.44 31.02 46.44 31.63L46.44 31.63L46.44 53.02Q46.44 61.70 40.93 65.79ZM54.28 30.12L54.28 30.12L92.92 30.12Q93.54 30.12 93.99 30.57Q94.44 31.02 94.44 31.63L94.44 31.63L94.44 40.65Q94.44 41.26 93.99 41.71Q93.54 42.16 92.92 42.16L92.92 42.16L80.88 42.16L80.88 67.81Q80.88 68.42 80.44 68.87Q79.99 69.32 79.37 69.32L79.37 69.32L67.84 69.32Q67.22 69.32 66.77 68.87Q66.32 68.42 66.32 67.81L66.32 67.81L66.32 42.16L54.28 42.16Q53.67 42.16 53.22 41.71Q52.77 41.26 52.77 40.65L52.77 40.65L52.77 31.63Q52.77 31.02 53.22 30.57Q53.67 30.12 54.28 30.12Z"></path></svg>